<svg xmlns="http://www.w3.org/2000/svg" width="18" height="18" viewBox="0 0 18 18">
    <path fill="#7F8D9B" d="M10.414 9l3.588 3.588c.168.168.247.3.29.44.043.142.043.287 0 .428-.043.142-.122.274-.29.442l-.104.104c-.168.168-.3.247-.442.29-.141.043-.286.043-.427 0-.142-.043-.273-.122-.441-.29L9 10.414l-3.588 3.588c-.168.168-.3.247-.44.29-.142.043-.287.043-.428 0-.142-.043-.274-.122-.442-.29l-.104-.104c-.168-.168-.247-.3-.29-.442-.043-.141-.043-.286 0-.427.043-.142.122-.273.29-.441L7.586 9 3.998 5.412c-.168-.168-.247-.3-.29-.44-.043-.142-.043-.287 0-.428.043-.142.122-.274.29-.442l.104-.104c.168-.168.3-.247.442-.29.141-.043.286-.043.427 0 .142.043.273.122.441.29L9 7.586l3.588-3.588c.168-.168.3-.247.44-.29.142-.043.287-.043.428 0 .142.043.274.122.442.29l.104.104c.168.168.247.3.29.442.043.141.043.286 0 .427-.043.142-.122.273-.29.441L10.414 9z"/>
</svg>
