<svg xmlns="http://www.w3.org/2000/svg" width="28" height="28" viewBox="0 0 28 28">
    <path fill="#7F8D9B" fill-rule="evenodd" d="M14 3c6.09 0 11 4.91 11 11s-4.91 11-11 11S3 20.09 3 14 7.91 3 14 3zm.67 9.167h-2.783c-.163 0-.266.025-.356.073-.09.048-.16.118-.208.208-.047.09-.073.192-.073.356v.357c0 .141.012.192.035.246.023.054.058.098.104.134.046.035.093.059.23.093l.91.228c.206.05.276.086.346.14.07.053.122.12.156.2.035.08.052.157.052.369v3.442c0 .211-.017.288-.052.368-.034.08-.087.148-.156.2-.07.054-.14.09-.345.14l-.91.228c-.138.035-.185.058-.231.094-.046.035-.081.08-.104.133-.023.054-.035.105-.035.246v.358c0 .163.026.266.073.355.048.09.119.16.208.208.09.048.193.074.356.074h4.684c.164 0 .266-.026.356-.074.09-.048.16-.118.208-.208.048-.09.073-.192.073-.355v-.358c0-.14-.011-.192-.034-.246-.023-.053-.058-.098-.105-.133-.046-.036-.093-.06-.23-.094l-.91-.227c-.206-.052-.276-.087-.346-.14-.07-.053-.121-.12-.156-.2-.035-.081-.052-.158-.052-.37v-5.14c0-.245-.026-.334-.073-.424-.048-.09-.119-.16-.208-.208-.09-.048-.179-.073-.424-.073zM14 7.125c-1.008 0-1.833.825-1.833 1.833 0 1.009.825 1.834 1.833 1.834s1.833-.825 1.833-1.834c0-1.008-.825-1.833-1.833-1.833z"/>
</svg>
