<svg xmlns="http://www.w3.org/2000/svg" width="18" height="18" viewBox="0 0 18 18">
    <path fill="#F5F5F7" d="M3 9.5H1.712c-.391 0-.708-.317-.708-.708 0-.188.075-.368.208-.501L8.17 1.348c.469-.469 1.229-.468 1.697.001l6.924 6.94c.277.277.277.727-.001 1.004-.133.132-.313.207-.502.207H15v5.962c0 .535-.056.729-.16.924-.105.196-.258.35-.454.454-.195.104-.39.16-.924.16h-.924c-.535 0-.729-.056-.924-.16-.196-.105-.35-.258-.454-.454-.104-.195-.16-.39-.16-.924v-2.924c0-.535-.056-.729-.16-.924-.105-.196-.258-.35-.454-.454-.195-.104-.39-.16-.924-.16h-.924c-.535 0-.729.056-.924.16-.196.105-.35.258-.454.454-.104.195-.16.39-.16.924v2.924c0 .535-.056.729-.16.924-.105.196-.258.35-.454.454-.195.104-.39.16-.924.16h-.924c-.535 0-.729-.056-.924-.16-.196-.105-.35-.258-.454-.454-.104-.195-.16-.39-.16-.924V9.5zM13.536 1h.444c.35 0 .48.037.61.107.131.07.233.172.303.302.07.13.107.261.107.611V5l-2.484-2.5v-.48c0-.35.037-.48.107-.61.07-.131.172-.233.302-.303.13-.07.26-.107.61-.107z"/>
</svg>
