<svg xmlns="http://www.w3.org/2000/svg" width="18" height="18" viewBox="0 0 18 18">
    <path fill="#7F8D9B" d="M9 1c4.418 0 8 3.582 8 8s-3.582 8-8 8-8-3.582-8-8 3.582-8 8-8zm0 1.5C5.41 2.5 2.5 5.41 2.5 9s2.91 6.5 6.5 6.5 6.5-2.91 6.5-6.5S12.59 2.5 9 2.5zM8.831 4c.184 0 .3.029.4.083.101.054.18.133.235.234.054.1.082.216.082.4v4.18c0 .092.01.125.028.159.018.033.044.06.078.078.034.018.067.027.159.027h2.631c.184 0 .3.029.4.083.101.054.18.133.235.234.054.101.082.217.082.4v.114c0 .184-.028.3-.082.4-.054.102-.134.181-.235.235-.1.054-.216.083-.4.083H9.06c-.368 0-.502-.039-.637-.11-.134-.073-.24-.178-.312-.313-.072-.134-.11-.268-.11-.636V4.717c0-.184.029-.3.083-.4.054-.101.133-.18.234-.234.1-.054.216-.083.4-.083h.114z"/>
</svg>
