<svg xmlns="http://www.w3.org/2000/svg" width="28" height="28" viewBox="0 0 28 28">
    <path fill="#7F8D9B" d="M15 19v5.077c0 .237-.037.386-.107.517-.07.13-.172.232-.302.302-.13.07-.28.107-.517.107h-.148c-.237 0-.386-.037-.517-.107-.13-.07-.232-.172-.302-.302-.07-.13-.107-.28-.107-.517V19H5.5C3.567 19 2 17.433 2 15.5c0-1.497.94-2.774 2.261-3.274C4.093 11.85 4 11.436 4 11c0-1.657 1.343-3 3-3 .494 0 .96.12 1.37.33C9.265 5.809 11.67 4 14.5 4c2.704 0 5.022 1.651 6.002 4C23.539 8.001 26 10.463 26 13.5c0 3.038-2.462 5.5-5.5 5.5H15zm0 0v-6.42l2.5 2 .92.739c.354.283.87.226 1.154-.128l.256-.32c.266-.331.212-.816-.12-1.082l-.085-.07-5-4c-.366-.292-.884-.292-1.25 0l-4.999 4.002-.085.068c-.332.266-.385.75-.12 1.082l.257.32c.283.354.799.41 1.152.128l.92-.739 2.5-2V19h2z"/>
</svg>
